<svg width="298" height="299" viewBox="0 0 298 299" fill="none" xmlns="http://www.w3.org/2000/svg">
<g filter="url(#filter0_b_250_528)">
<path d="M254.359 44.6045C226.416 16.6615 188.517 0.963379 149 0.963379C109.483 0.963379 71.584 16.6615 43.6411 44.6045C15.6982 72.5474 2.94427e-07 110.446 0 149.963C-2.94427e-07 189.481 15.6982 227.379 43.6411 255.322C71.584 283.265 109.483 298.963 149 298.963C188.517 298.963 226.416 283.265 254.359 255.322C282.302 227.379 298 189.481 298 149.963C298 110.446 282.302 72.5474 254.359 44.6045ZM149 279.096C77.7962 279.096 19.867 221.167 19.867 149.963C19.867 78.7595 77.7962 20.8303 149 20.8303C220.204 20.8303 278.133 78.7595 278.133 149.963C278.133 221.167 220.204 279.096 149 279.096Z" fill="#373737" fill-opacity="0.92"/>
<path d="M149 279.096C77.7962 279.096 19.867 221.167 19.867 149.963C19.867 78.7595 77.7962 20.8303 149 20.8303C220.204 20.8303 278.133 78.7595 278.133 149.963C278.133 221.167 220.204 279.096 149 279.096Z" fill="#373737" fill-opacity="0.92"/>
</g>
<path d="M212.688 89.7954C209.139 86.0569 203.182 86.057 199.633 89.7956L151.675 140.321L103.716 89.7956C100.167 86.057 94.2096 86.0569 90.6608 89.7954L89.0218 91.5221C85.7251 94.9951 85.7251 100.441 89.0217 103.914L137.627 155.12L89.0216 206.327C85.725 209.8 85.7251 215.246 89.0218 218.719L90.6608 220.446C94.2096 224.184 100.167 224.184 103.716 220.446L151.675 169.92L199.633 220.446C203.182 224.184 209.139 224.184 212.688 220.446L214.327 218.719C217.624 215.246 217.624 209.8 214.327 206.327L165.722 155.12L214.327 103.914C217.624 100.441 217.624 94.9951 214.327 91.5221L212.688 89.7954Z" fill="#FDFDFD" fill-opacity="0.67"/>
<defs>
<filter id="filter0_b_250_528" x="-16" y="-15.0366" width="330" height="330" filterUnits="userSpaceOnUse" color-interpolation-filters="sRGB">
<feFlood flood-opacity="0" result="BackgroundImageFix"/>
<feGaussianBlur in="BackgroundImageFix" stdDeviation="8"/>
<feComposite in2="SourceAlpha" operator="in" result="effect1_backgroundBlur_250_528"/>
<feBlend mode="normal" in="SourceGraphic" in2="effect1_backgroundBlur_250_528" result="shape"/>
</filter>
</defs>
</svg>
