<svg width="21" height="23" viewBox="0 0 21 23" fill="none" xmlns="http://www.w3.org/2000/svg">
<path d="M20.3974 1.4182C19.7503 0.736481 18.6639 0.736493 18.0168 1.41823L10.4308 9.41023L2.8448 1.41823C2.1977 0.736494 1.11133 0.736481 0.464214 1.4182V1.4182C-0.13693 2.05149 -0.136937 3.0446 0.464196 3.6779L8.1681 11.794L0.464186 19.9103C-0.136943 20.5436 -0.136932 21.5367 0.464211 22.17V22.17C1.11133 22.8517 2.1977 22.8517 2.8448 22.1699L10.4308 14.1779L18.0168 22.1699C18.6639 22.8517 19.7503 22.8517 20.3974 22.17V22.17C20.9985 21.5367 20.9985 20.5436 20.3974 19.9103L12.6935 11.794L20.3974 3.6779C20.9985 3.0446 20.9985 2.05149 20.3974 1.4182V1.4182Z" fill="#FDFDFD" fill-opacity="0.67"/>
</svg>
